<?xml version="1.0" encoding="utf-8"?><!-- Uploaded to: SVG Repo, www.svgrepo.com, Generator: SVG Repo Mixer Tools -->
<svg fill="#000000" width="800px" height="800px" viewBox="0 0 24 24" id="paper-clip-top-right-2" data-name="Flat Color" xmlns="http://www.w3.org/2000/svg" class="icon flat-color"><path id="primary" d="M7.05,20.56a5,5,0,0,1-3.57-8.62L9.91,5.51a7.08,7.08,0,0,1,10,10l-4,3.95a1,1,0,1,1-1.41-1.41l4-3.95a5.08,5.08,0,0,0-7.19-7.19L4.89,13.35a3.05,3.05,0,0,0,4.32,4.32L16,10.93a1,1,0,0,0,.3-.72,1,1,0,0,0-.3-.73,1,1,0,0,0-1.45,0l-7,7.05a1,1,0,0,1-1.41,0,1,1,0,0,1,0-1.42l7-7a3,3,0,0,1,4.29,0,3,3,0,0,1,0,4.28l-6.74,6.74A5.06,5.06,0,0,1,7.05,20.56Z" style="fill: rgb(0, 0, 0);"></path></svg>