<?xml version="1.0" encoding="iso-8859-1"?>
<!-- Uploaded to: SVG Repo, www.svgrepo.com, Generator: SVG Repo Mixer Tools -->
<svg fill="#000000" height="800px" width="800px" version="1.1" id="Layer_1" xmlns="http://www.w3.org/2000/svg" xmlns:xlink="http://www.w3.org/1999/xlink" 
	 viewBox="0 0 512 512" xml:space="preserve">
<g>
	<g>
		<path d="M335.821,157.701h-31.216c-4.356,0-7.885,3.53-7.885,7.885s3.529,7.885,7.885,7.885h31.216
			c4.356,0,7.885-3.53,7.885-7.885S340.175,157.701,335.821,157.701z"/>
	</g>
</g>
<g>
	<g>
		<path d="M273.387,157.701h-31.215c-4.356,0-7.885,3.53-7.885,7.885s3.529,7.885,7.885,7.885h31.215
			c4.356,0,7.885-3.53,7.885-7.885S277.742,157.701,273.387,157.701z"/>
	</g>
</g>
<g>
	<g>
		<path d="M398.253,157.701h-31.216c-4.356,0-7.885,3.53-7.885,7.885s3.529,7.885,7.885,7.885h31.216
			c4.356,0,7.885-3.53,7.885-7.885S402.609,157.701,398.253,157.701z"/>
	</g>
</g>
<g>
	<g>
		<path d="M148.521,157.701h-31.216c-4.356,0-7.885,3.53-7.885,7.885s3.529,7.885,7.885,7.885h31.216
			c4.356,0,7.885-3.53,7.885-7.885S152.877,157.701,148.521,157.701z"/>
	</g>
</g>
<g>
	<g>
		<path d="M86.089,157.701H54.872c-4.356,0-7.885,3.53-7.885,7.885s3.529,7.885,7.885,7.885h31.216c4.356,0,7.885-3.53,7.885-7.885
			S90.444,157.701,86.089,157.701z"/>
	</g>
</g>
<g>
	<g>
		<path d="M210.955,157.701h-31.216c-4.356,0-7.885,3.53-7.885,7.885s3.529,7.885,7.885,7.885h31.216
			c4.356,0,7.885-3.53,7.885-7.885S215.311,157.701,210.955,157.701z"/>
	</g>
</g>
<g>
	<g>
		<path d="M445.24,157.701h-15.77c-4.356,0-7.885,3.53-7.885,7.885s3.529,7.885,7.885,7.885h7.885v7.885
			c0,4.355,3.529,7.885,7.885,7.885c4.356,0,7.885-3.53,7.885-7.885v-15.77C453.125,161.232,449.596,157.701,445.24,157.701z"/>
	</g>
</g>
<g>
	<g>
		<path d="M445.24,448.92c-4.356,0-7.885,3.53-7.885,7.885v7.885h-7.885c-4.356,0-7.885,3.53-7.885,7.885s3.529,7.885,7.885,7.885
			h15.77c4.356,0,7.885-3.53,7.885-7.885v-15.77C453.125,452.451,449.595,448.92,445.24,448.92z"/>
	</g>
</g>
<g>
	<g>
		<path d="M210.954,464.69h-31.215c-4.356,0-7.885,3.53-7.885,7.885s3.529,7.885,7.885,7.885h31.215c4.356,0,7.885-3.53,7.885-7.885
			S215.31,464.69,210.954,464.69z"/>
	</g>
</g>
<g>
	<g>
		<path d="M86.089,464.69H54.872c-4.356,0-7.885,3.53-7.885,7.885s3.529,7.885,7.885,7.885h31.216c4.356,0,7.885-3.53,7.885-7.885
			S90.444,464.69,86.089,464.69z"/>
	</g>
</g>
<g>
	<g>
		<path d="M398.253,464.69h-31.216c-4.356,0-7.885,3.53-7.885,7.885s3.529,7.885,7.885,7.885h31.216c4.356,0,7.885-3.53,7.885-7.885
			S402.609,464.69,398.253,464.69z"/>
	</g>
</g>
<g>
	<g>
		<path d="M335.821,464.69h-31.216c-4.356,0-7.885,3.53-7.885,7.885s3.529,7.885,7.885,7.885h31.216c4.356,0,7.885-3.53,7.885-7.885
			S340.175,464.69,335.821,464.69z"/>
	</g>
</g>
<g>
	<g>
		<path d="M273.387,464.69h-31.216c-4.356,0-7.885,3.53-7.885,7.885s3.529,7.885,7.885,7.885h31.216c4.356,0,7.885-3.53,7.885-7.885
			S277.742,464.69,273.387,464.69z"/>
	</g>
</g>
<g>
	<g>
		<path d="M148.521,464.69h-31.216c-4.356,0-7.885,3.53-7.885,7.885s3.529,7.885,7.885,7.885h31.216c4.356,0,7.885-3.53,7.885-7.885
			S152.877,464.69,148.521,464.69z"/>
	</g>
</g>
<g>
	<g>
		<path d="M504.115,233.397h-17.347v-65.708c0-21.739-17.685-39.425-39.425-39.425h-9.025l-14.755-81.826
			c-0.751-4.157-5.068-7.253-9.428-6.307l-112.796,24.42L271.423,6.383c-1.966-3.823-6.635-5.368-10.491-3.469l-77.799,38.261
			c-3.908,1.922-5.518,6.648-3.597,10.555c1.922,3.908,6.648,5.517,10.555,3.596l70.849-34.843l24.44,47.522l-14.228,3.08
			c-4.257,0.921-6.96,5.119-6.038,9.375c0.922,4.257,5.121,6.96,9.375,6.038l135.002-29.227l12.802,70.993H81.572l138.249-29.93
			c4.257-0.921,6.96-5.119,6.038-9.375c-0.921-4.256-5.12-6.96-9.375-6.038l-147.38,31.907L141.73,79.11
			c3.909-1.922,5.518-6.648,3.597-10.555c-1.923-3.908-6.648-5.517-10.555-3.596L4.406,129.073c-2.691,1.316-4.45,4.18-4.405,7.176
			v214.371c0,4.355,3.529,7.885,7.885,7.885c4.356,0,7.885-3.53,7.885-7.885V207.114h387.942v26.283H334.85
			c-13.043,0-23.655,10.611-23.655,23.655v124.057c0,13.044,10.612,23.655,23.655,23.655h68.862v26.283H15.771v-34.168
			c0-4.355-3.529-7.885-7.885-7.885c-4.356,0-7.885,3.53-7.885,7.885v105.133c0,4.355,3.529,7.885,7.885,7.885h439.457
			c21.74,0,39.425-17.686,39.425-39.425v-65.708h17.347c4.356,0,7.885-3.53,7.885-7.885V241.282
			C512,236.928,508.469,233.397,504.115,233.397z M15.771,191.344v-17.873h7.885c4.356,0,7.885-3.53,7.885-7.885
			s-3.529-7.885-7.885-7.885h-7.885v-13.667h431.572c13.043,0,23.655,10.611,23.655,23.655v65.708h-17.873v-21.436
			c0-4.355-3.529-7.885-7.885-7.885c-4.356,0-7.885,3.53-7.885,7.885v21.436h-17.873v-34.168c0-4.355-3.53-7.885-7.885-7.885H15.771
			z M470.998,470.473c0,13.044-10.612,23.655-23.655,23.655H15.771V480.46h7.885c4.356,0,7.885-3.53,7.885-7.885
			s-3.529-7.885-7.885-7.885h-7.885v-17.873h395.827c4.356,0,7.885-3.53,7.885-7.885v-34.168h17.873v24.823
			c0,4.355,3.529,7.885,7.885,7.885c4.356,0,7.885-3.53,7.885-7.885v-24.823h17.873V470.473z M496.23,388.994H334.85
			c-4.348,0-7.885-3.537-7.885-7.885V257.052c0-4.348,3.537-7.885,7.885-7.885h161.38V388.994z"/>
	</g>
</g>
<g>
	<g>
		<path d="M441.035,291.22c4.356,0,7.885-3.53,7.885-7.885c0-4.355-3.529-7.885-7.885-7.885h-21.552v-8.936
			c0-4.355-3.529-7.885-7.885-7.885c-4.356,0-7.885,3.53-7.885,7.885v8.936h-6.834c-10.144,0-18.398,8.254-18.398,18.398v16.821
			c0,10.144,8.254,18.398,18.398,18.398h6.834v22.078H382.16c-4.356,0-7.885,3.53-7.885,7.885s3.529,7.885,7.885,7.885h21.552v8.936
			c0,4.355,3.529,7.885,7.885,7.885c4.356,0,7.885-3.53,7.885-7.885v-8.936h6.834c10.144,0,18.398-8.254,18.398-18.398v-16.821
			c0-10.144-8.254-18.398-18.398-18.398h-6.834V291.22H441.035z M403.713,313.298h-6.834c-1.45,0-2.628-1.18-2.628-2.628v-16.821
			c0-1.449,1.179-2.628,2.628-2.628h6.834V313.298z M426.316,329.068c1.45,0,2.628,1.18,2.628,2.628v16.821
			c0,1.449-1.179,2.628-2.628,2.628h-6.834v-22.078H426.316z"/>
	</g>
</g>
</svg>